<svg xmlns="http://www.w3.org/2000/svg" viewBox="0 0 128 128" role="img" aria-labelledby="title desc">
  <title id="title">IMAP Mailboxes icon</title>
  <desc id="desc">A rounded mailbox window with an envelope and connection dots.</desc>
  <defs>
    <linearGradient id="bg" x1="20" y1="10" x2="108" y2="118" gradientUnits="userSpaceOnUse">
      <stop offset="0" stop-color="#2F8BA3"/>
      <stop offset="0.55" stop-color="#256D85"/>
      <stop offset="1" stop-color="#1F3F5B"/>
    </linearGradient>
    <linearGradient id="panel" x1="32" y1="36" x2="96" y2="98" gradientUnits="userSpaceOnUse">
      <stop offset="0" stop-color="#FFFFFF"/>
      <stop offset="1" stop-color="#E8F1F4"/>
    </linearGradient>
    <filter id="shadow" x="-20%" y="-20%" width="140%" height="150%" color-interpolation-filters="sRGB">
      <feDropShadow dx="0" dy="7" stdDeviation="8" flood-color="#102533" flood-opacity="0.28"/>
    </filter>
  </defs>

  <rect width="128" height="128" rx="30" fill="#12171C"/>
  <rect x="14" y="14" width="100" height="100" rx="24" fill="url(#bg)" filter="url(#shadow)"/>
  <path d="M14 39c0-13.8 11.2-25 25-25h50c13.8 0 25 11.2 25 25v13H14V39Z" fill="#74C7E2"/>

  <circle cx="34" cy="33" r="5" fill="#EAF8FC"/>
  <circle cx="49" cy="33" r="5" fill="#EAF8FC" opacity="0.82"/>
  <circle cx="64" cy="33" r="5" fill="#EAF8FC" opacity="0.64"/>

  <rect x="30" y="48" width="68" height="48" rx="10" fill="url(#panel)"/>
  <path d="M36 56.5 64 75l28-18.5" fill="none" stroke="#256D85" stroke-width="7" stroke-linecap="round" stroke-linejoin="round"/>
  <path d="M36 88 55.5 69.5M92 88 72.5 69.5" fill="none" stroke="#84AFC0" stroke-width="6" stroke-linecap="round"/>

  <path d="M28 94h72" stroke="#1D5267" stroke-width="5" stroke-linecap="round" opacity="0.36"/>
  <circle cx="93" cy="86" r="8" fill="#F5B946"/>
  <path d="M89.5 86h7M93 82.5v7" stroke="#1F3F5B" stroke-width="3" stroke-linecap="round"/>
</svg>
